<svg width="27" height="27" viewBox="0 0 27 27" fill="none" xmlns="http://www.w3.org/2000/svg">
<path d="M27 19.1565C27 24.0705 24.0705 27 19.1565 27H17.55C16.8075 27 16.2 26.3925 16.2 25.65V17.8605C16.2 17.496 16.497 17.1855 16.8615 17.1855L19.2375 17.145C19.4265 17.1315 19.5885 16.9965 19.629 16.8075L20.1015 14.229C20.1107 14.1706 20.1071 14.1108 20.0909 14.0539C20.0748 13.997 20.0465 13.9443 20.008 13.8993C19.9695 13.8544 19.9217 13.8184 19.8679 13.7937C19.8141 13.7691 19.7557 13.7564 19.6965 13.7565L16.821 13.797C16.443 13.797 16.146 13.5 16.1325 13.1355L16.0785 9.828C16.0785 9.612 16.254 9.423 16.4835 9.423L19.7235 9.369C19.953 9.369 20.1285 9.1935 20.1285 8.964L20.0745 5.724C20.0745 5.4945 19.899 5.319 19.6695 5.319L16.0245 5.373C15.4924 5.38108 14.9672 5.49409 14.4788 5.70554C13.9905 5.91698 13.5487 6.22272 13.1787 6.60523C12.8087 6.98773 12.5179 7.43948 12.3228 7.93459C12.1278 8.4297 12.0323 8.95844 12.042 9.4905L12.1095 13.203C12.123 13.581 11.826 13.878 11.448 13.8915L9.828 13.9185C9.5985 13.9185 9.423 14.094 9.423 14.3235L9.4635 16.8885C9.4635 17.118 9.639 17.2935 9.8685 17.2935L11.4885 17.2665C11.8665 17.2665 12.1635 17.5635 12.177 17.928L12.2985 25.623C12.312 26.379 11.7045 27 10.9485 27H7.8435C2.9295 27 0 24.0705 0 19.143V7.8435C0 2.9295 2.9295 0 7.8435 0H19.1565C24.0705 0 27 2.9295 27 7.8435V19.1565Z" fill="url(#paint0_linear_35_27)"/>
<defs>
<linearGradient id="paint0_linear_35_27" x1="13.5" y1="0" x2="13.5" y2="27" gradientUnits="userSpaceOnUse">
<stop stop-color="#06E6F0"/>
<stop offset="1" stop-color="#005AA3"/>
</linearGradient>
</defs>
</svg>
