<svg width="27" height="27" viewBox="0 0 27 27" fill="none" xmlns="http://www.w3.org/2000/svg">
<path d="M19.1661 0H7.84741C2.93096 0 0 2.9295 0 7.8435V19.143C0 24.0705 2.93096 27 7.84741 27H19.1525C24.069 27 27 24.0705 27 19.1565V7.8435C27.0135 2.9295 24.0825 0 19.1661 0ZM13.5067 18.738C10.6163 18.738 8.26612 16.389 8.26612 13.5C8.26612 10.611 10.6163 8.262 13.5067 8.262C16.3972 8.262 18.7473 10.611 18.7473 13.5C18.7473 16.389 16.3972 18.738 13.5067 18.738ZM21.5027 6.588C21.4352 6.75 21.3406 6.8985 21.2191 7.0335C21.084 7.155 20.9354 7.2495 20.7734 7.317C20.5275 7.42129 20.2562 7.45002 19.994 7.39952C19.7318 7.34903 19.4906 7.2216 19.3011 7.0335C19.1796 6.8985 19.085 6.75 19.0175 6.588C18.9481 6.42575 18.9114 6.25143 18.9094 6.075C18.9094 5.8995 18.9499 5.724 19.0175 5.562C19.085 5.3865 19.1796 5.2515 19.3011 5.1165C19.6118 4.806 20.0845 4.6575 20.5167 4.752C20.6113 4.7655 20.6923 4.7925 20.7734 4.833C20.8544 4.86 20.9354 4.9005 21.0165 4.9545C21.084 4.995 21.1515 5.0625 21.2191 5.1165C21.3406 5.2515 21.4352 5.3865 21.5027 5.562C21.5702 5.724 21.6108 5.8995 21.6108 6.075C21.6108 6.2505 21.5702 6.426 21.5027 6.588Z" fill="url(#paint0_linear_35_41)"/>
<defs>
<linearGradient id="paint0_linear_35_41" x1="13.5" y1="0" x2="13.5" y2="27" gradientUnits="userSpaceOnUse">
<stop stop-color="#06E6F0"/>
<stop offset="1" stop-color="#005AA3"/>
</linearGradient>
</defs>
</svg>
